<?xml version="1.0" encoding="UTF-8" standalone="no"?>
<!DOCTYPE svg PUBLIC "-//W3C//DTD SVG 1.1//EN" "http://www.w3.org/Graphics/SVG/1.1/DTD/svg11.dtd">
<svg width="100%" height="100%" viewBox="0 0 886 540" version="1.1" xmlns="http://www.w3.org/2000/svg" xmlns:xlink="http://www.w3.org/1999/xlink" xml:space="preserve" xmlns:serif="http://www.serif.com/" style="fill-rule:evenodd;clip-rule:evenodd;">
    <g id="picture" transform="matrix(1.97717,0,0,1.97717,-147.142,-489.518)">
        <g id="Clip">
            <clipPath id="_clip1">
                <path d="M297.97,254.996C273.468,254.997 253.607,274.858 253.607,299.36C253.619,317.891 265.152,334.462 282.523,340.916L282.523,346.591L288.259,352.332L287.6,394.16L137.951,394.066C135.58,394.06 133.527,392.333 133.527,392.333C131.284,390.066 135.039,380.695 135.039,380.695L137.868,374.66C139.211,371.654 139.703,371.516 140.487,370.071C137.303,370.36 135.513,370.734 133.317,371.316C126.643,373.202 123.34,374.49 115.656,377.938C108.117,381.52 104.99,382.986 99.927,386.204C91.842,390.891 88.02,393.942 81.778,397.803C82.236,398.192 82.717,398.495 83.218,398.76C88.196,401.969 92.062,404.829 99.091,408.903C104.154,412.121 107.281,413.587 114.82,417.169C122.504,420.617 125.807,421.905 132.481,423.791C134.677,424.373 136.467,424.741 139.651,425.031C138.867,423.585 138.375,423.454 137.032,420.447L134.203,414.412C134.203,414.412 130.448,405.041 132.691,402.774C132.691,402.774 133.696,401.946 135.1,401.435C135.897,401.288 136.737,401.163 137.586,401.041L180.631,401.013L288.22,401.329L288.625,413.199L290.285,430.722L291.31,441.949L303.268,441.944L304.265,431.015L305.92,413.138L306.358,401.329L468.874,402.187L490.145,402.879C494.975,403.281 499.672,404.135 503.936,405.309L511.443,407.518C512.94,406.194 513.677,405.024 514.095,403.543C514.679,401.605 514.607,399.411 514.627,397.758C514.559,396.193 514.571,393.983 514.278,392.504C513.82,391.062 513.128,389.853 511.631,388.528L504.124,390.737C500.654,391.714 495.86,392.76 490.327,393.162L468.807,394.264L306.358,394.264L306.286,352.448L312.027,347.265L312.021,341.031C329.594,334.697 342.309,318.038 342.333,299.359C342.333,274.857 322.471,254.996 297.97,254.996L297.97,254.996ZM297.865,262.941C322.818,263.355 334.646,283.286 334.433,299.564C334.19,318.077 318.588,335.379 298.191,336C278.078,336 261.773,319.695 261.773,299.581C261.773,279.467 277.751,262.941 297.865,262.941Z"/>
            </clipPath>
            <g clip-path="url(#_clip1)">
                <path id="path27" d="M297.97,254.996C273.468,254.997 253.607,274.858 253.607,299.36C253.619,317.891 265.152,334.462 282.523,340.916L282.523,346.591L288.259,352.332L287.6,394.16L137.951,394.066C135.58,394.06 133.527,392.333 133.527,392.333C131.284,390.066 135.039,380.695 135.039,380.695L137.868,374.66C139.211,371.654 139.703,371.516 140.487,370.071C137.303,370.36 135.513,370.734 133.317,371.316C126.643,373.202 123.34,374.49 115.656,377.938C108.117,381.52 104.99,382.986 99.927,386.204C91.842,390.891 88.02,393.942 81.778,397.803C82.236,398.192 82.717,398.495 83.218,398.76C88.196,401.969 92.062,404.829 99.091,408.903C104.154,412.121 107.281,413.587 114.82,417.169C122.504,420.617 125.807,421.905 132.481,423.791C134.677,424.373 136.467,424.741 139.651,425.031C138.867,423.585 138.375,423.454 137.032,420.447L134.203,414.412C134.203,414.412 130.448,405.041 132.691,402.774C132.691,402.774 133.696,401.946 135.1,401.435C135.897,401.288 136.737,401.163 137.586,401.041L180.631,401.013L288.22,401.329L288.625,413.199L290.285,430.722L291.31,441.949L303.268,441.944L304.265,431.015L305.92,413.138L306.358,401.329L468.874,402.187L490.145,402.879C494.975,403.281 499.672,404.135 503.936,405.309L511.443,407.518C512.94,406.194 513.677,405.024 514.095,403.543C514.679,401.605 514.607,399.411 514.627,397.758C514.559,396.193 514.571,393.983 514.278,392.504C513.82,391.062 513.128,389.853 511.631,388.528L504.124,390.737C500.654,391.714 495.86,392.76 490.327,393.162L468.807,394.264L306.358,394.264L306.286,352.448L312.027,347.265L312.021,341.031C329.594,334.697 342.309,318.038 342.333,299.359C342.333,274.857 322.471,254.996 297.97,254.996L297.97,254.996ZM297.865,262.941C322.818,263.355 334.646,283.286 334.433,299.564C334.19,318.077 318.588,335.379 298.191,336C278.078,336 261.773,319.695 261.773,299.581C261.773,279.467 277.751,262.941 297.865,262.941Z" style="fill-opacity:0.997;fill-rule:nonzero;"/>
                <g id="path21-0-4" transform="matrix(0.264583,0,0,0.264583,81.1171,254.995)">
                    <path d="M819.611,0C727.007,0.001 651.936,75.072 651.935,167.676C651.982,237.717 695.558,300.35 761.213,324.744L761.213,346.192L782.905,367.884L780.402,525.971L214.802,525.622C205.842,525.599 198.087,519.067 198.087,519.067C189.61,510.501 203.796,475.08 203.796,475.08L214.492,452.275C219.57,440.911 221.437,440.404 224.397,434.941C212.364,436.034 205.586,437.436 197.285,439.636C172.059,446.763 159.591,451.629 130.549,464.66C102.058,478.2 90.23,483.739 71.093,495.902C40.535,513.618 26.081,525.15 2.491,539.74C4.219,541.212 6.05,542.374 7.945,543.377C26.758,555.505 41.368,566.301 67.932,581.7C87.069,593.863 98.896,599.408 127.387,612.948C156.43,625.979 168.898,630.846 194.123,637.972C202.425,640.172 209.202,641.569 221.235,642.662C218.275,637.199 216.409,636.692 211.331,625.327L200.634,602.528C200.634,602.528 186.449,567.101 194.926,558.536C194.926,558.536 198.721,555.396 204.028,553.465C207.041,552.91 210.229,552.44 213.434,551.981L376.122,551.881L782.755,553.082L784.289,597.933L790.562,664.16L794.421,706.596L839.631,706.579L843.385,665.283L849.641,597.711L851.313,553.082L1465.54,556.31L1545.93,558.945C1564.18,560.467 1581.95,563.687 1598.07,568.124L1626.43,576.468C1632.09,571.463 1634.86,567.043 1636.44,561.448C1638.65,554.121 1638.38,545.84 1638.46,539.59C1638.2,533.675 1638.25,525.305 1637.15,519.714C1635.42,514.266 1632.79,509.699 1627.14,504.694L1598.77,513.037C1585.65,516.727 1567.54,520.694 1546.63,522.216L1465.3,526.385L851.313,526.385L851.031,368.329L872.73,348.743L872.71,325.182C939.126,301.239 987.188,238.273 987.28,167.674C987.279,75.07 912.216,0.001 819.611,0ZM819.204,30.034C913.517,31.598 958.212,106.939 957.406,168.463C956.488,238.432 897.538,303.812 820.447,306.158C744.427,306.159 682.801,244.532 682.801,168.512C682.801,92.492 743.184,30.034 819.204,30.034Z" style="fill:rgb(35,31,32);fill-opacity:0.997;fill-rule:nonzero;"/>
                </g>
            </g>
        </g>
        <path id="path57" d="M149.207,465.01L178.563,465.12L157.311,503.503L177.349,503.486L177.238,510.037L146.227,510.083L167.437,471.485L149.097,471.485L149.207,465.01Z" style="fill:rgb(35,31,32);stroke:rgb(35,31,32);stroke-width:0.75px;"/>
        <path id="path59" d="M210.346,464.955L216.858,464.955L216.852,510.096L210.385,510.096L210.346,464.955Z" style="fill:rgb(35,31,32);stroke:rgb(35,31,32);stroke-width:0.75px;"/>
        <path id="path63" d="M305.477,465.01L311.878,464.955L311.849,482.502L330.417,464.964L339.703,465.042L316.894,486.758L339.716,510.07L330.458,510.07L311.794,490.834L311.844,510.173L305.476,510.173L305.477,465.01Z" style="fill:rgb(35,31,32);stroke:rgb(35,31,32);stroke-width:0.75px;"/>
        <path id="path65" d="M370.424,465.065L376.935,464.955L376.935,510.037L370.479,510.092L370.424,465.065Z" style="fill:rgb(35,31,32);stroke:rgb(35,31,32);stroke-width:0.75px;"/>
        <path id="path67" d="M412.085,463.354L443.865,495.676L444.167,464.554L450.536,464.6L450.591,511.647L418.448,479.384L418.41,510.203L411.917,510.092L412.085,463.354Z" style="fill:rgb(35,31,32);stroke:rgb(35,31,32);stroke-width:0.75px;"/>
        <g transform="matrix(1,0,0,1,74.4208,247.586)">
            <path d="M177.973,217.369C182.718,217.443 191.382,217.424 191.382,217.424C193.696,217.664 196.098,218.787 198.043,220.24C200.2,222.16 201.466,223.986 201.964,226.113C202.357,229.05 202.345,231.498 202.061,234.309C201.315,237.299 200.169,239.131 198.494,240.957C196.409,242.695 194.643,243.486 192.082,244.063C189.854,244.298 186.743,244.258 184.239,244.274L184.395,262.758L177.903,262.758L177.973,217.369ZM184.216,237.735L184.299,223.867L189.223,223.85C191.892,224.115 193.475,224.75 194.527,225.976C195.598,227.535 195.875,228.514 195.906,230.28C196.049,231.351 195.903,232.752 195.024,234.64C194.256,235.714 194.181,236.029 192.857,236.798C191.301,237.44 192.256,237.323 189.009,237.73L184.216,237.735Z" style="fill:rgb(35,31,32);stroke:rgb(35,31,32);stroke-width:0.75px;"/>
        </g>
    </g>
    <g transform="matrix(0.523125,0,0,0.523125,13.2397,14.6487)">
        <g id="Cutting">
            <path id="path873" d="M817.332,-26.811C724.779,-27.454 638.719,47.388 627.201,139.278C620.93,187.557 630.627,238.277 659.751,277.983C675.775,302.05 698.632,321.599 722.897,336.42C728.376,339.754 732.338,345.093 733.941,351.302C736.191,360.155 741.896,367.231 747.151,374.351C750.813,379.385 752.696,385.495 752.5,391.717C751.712,418.727 751.818,446.197 752.073,473.361C752.124,479.522 749.711,485.447 745.372,489.82C741.032,494.193 735.125,496.651 728.964,496.647C648.106,496.596 379.159,496.423 272.504,496.354C263.033,496.348 254.182,491.641 248.881,483.792C243.58,475.942 242.521,465.974 246.053,457.186C250.531,446.645 253.116,436.175 249.663,427.38C239.164,401.433 206.649,406.465 185.32,413.365C138.88,426.115 95.948,449.71 53.952,472.971C29.811,489.28 2.436,501.83 -18.64,522.134C-30.611,538.213 -21.695,560.449 -4.695,568.693C61.313,614.632 133.509,655.771 213.326,671.047C228.444,673.698 240.661,663.622 245.133,650.688C246.346,647.181 243.853,637.026 240.101,625.404C236.993,615.567 238.769,604.837 244.881,596.527C250.993,588.216 260.707,583.324 271.023,583.361C412.019,583.705 646.052,583.522 725.073,583.446C740.396,583.431 753.229,595.048 754.734,610.298C757.652,639.867 762.352,687.505 765.568,720.095C766.462,729.157 763.489,738.175 757.382,744.929C751.274,751.683 742.599,755.546 733.493,755.565C585.377,755.808 376.826,755.542 239.757,756.738C217.773,756.662 213.076,782.427 213.704,801.047C214.436,859.947 212.234,919.198 214.812,977.879C215.475,1000.39 245.772,1002.48 263.286,1001.64L1400.58,1001.64C1422.25,1001.02 1430.04,978.619 1428.92,959.135C1428.19,899.447 1428.73,839.41 1428.86,779.734C1425.98,756.487 1398.11,755.756 1379.34,756.183C1379.34,756.183 1012.22,756.183 899.312,756.183C890.91,756.183 882.892,752.667 877.201,746.486C871.509,740.305 868.665,732.024 869.357,723.651C872.055,691.009 876.167,641.251 878.728,610.26C880.04,594.389 893.358,582.208 909.283,582.315C1108.47,583.536 1347.18,582.293 1542.24,587.353C1572.66,586.986 1600.57,604.074 1630.79,602.694C1659.06,597.196 1667.97,564.363 1666.46,539.25C1669.5,512.3 1654.44,475.951 1622.96,477.271C1592.97,483.956 1563.36,494.033 1532.2,494.451C1443.59,499.968 1354.72,495.973 1265.99,497.105C1146.95,496.998 1027.9,496.84 908.859,496.7C901.482,496.692 894.414,493.738 889.225,488.495C884.036,483.252 881.155,476.154 881.222,468.777C881.424,442.239 881.252,417.27 881.402,389.619C881.426,385.453 883.092,381.465 886.04,378.521C893.616,370.915 901.661,360.422 905.111,350.02C906.983,344.384 910.832,339.615 915.946,336.595C968.49,305.062 1008.02,250.012 1012.62,187.957C1020.53,118.225 987.478,45.956 928.76,7.25C896.192,-15.04 856.831,-27.258 817.332,-26.811L817.332,-26.811Z" style="fill:none;stroke:rgb(255,0,0);stroke-opacity:0.997;stroke-width:2.36px;"/>
        </g>
    </g>
</svg>
