<svg xmlns="http://www.w3.org/2000/svg" viewBox="0 0 415.13 93.39"><defs><style>.cls-1{fill:#222;}</style></defs><title>자산 7</title><g id="레이어_2" data-name="레이어 2"><g id="title"><path class="cls-1" d="M47.62,40.11,61.5,65l-8.87,4.58v6.3l18-8-26-42.39L18.88,67.61l17.73,8.3.29-6.3L28,65,41.91,40.11l-.29,53L0,73.34,44.91,0,89.53,73.05,47.62,93.39Z"/><rect class="cls-1" x="372.77" y="28.57" width="7.65" height="10.78"/><path class="cls-1" d="M121.82,46.78c0-12.46,7-19.7,17.12-19.7s17.12,7.29,17.12,19.7-7,20-17.12,20S121.82,59.19,121.82,46.78Zm26.43,0c0-8.22-3.62-13.14-9.31-13.14s-9.31,4.92-9.31,13.14,3.62,13.4,9.31,13.4S148.25,55,148.25,46.78Z"/><path class="cls-1" d="M161.49,27.8h12.57c8.48,0,15,2.95,15,12,0,8.74-6.57,12.67-14.8,12.67h-5.12v13.6h-7.65Zm12.26,18.62c5.27,0,7.81-2.23,7.81-6.62s-2.8-5.95-8.07-5.95h-4.35V46.42Z"/><path class="cls-1" d="M194.39,27.8h23.48v6.36H202V43h13.45v6.42H202V59.66h16.4v6.41H194.39Z"/><path class="cls-1" d="M257.85,61.47l17.84-27.31H259.55V27.8h25.5v4.55L267.26,59.66h18v6.41H257.85Z"/><path class="cls-1" d="M290.44,27.8h7.65V66.07h-7.65Z"/><path class="cls-1" d="M303.37,27.8h12.57c8.48,0,15,2.95,15,12,0,8.74-6.56,12.67-14.79,12.67H311v13.6h-7.65Zm12.25,18.62c5.28,0,7.81-2.23,7.81-6.62s-2.79-5.95-8.06-5.95H311V46.42Z"/><path class="cls-1" d="M336.36,27.8H344V44.4h.16l12.67-16.6h8.43L353.58,42.85l13.76,23.22h-8.43L349,48.9l-5,6.41V66.07h-7.65Z"/><path class="cls-1" d="M372.77,27.8h7.66V66.07h-7.66Z"/><path class="cls-1" d="M385.86,27.8h7.81l11.12,20.38,3.82,8.27h.26c-.41-4-1-9.05-1-13.39V27.8h7.24V66.07h-7.76L396.31,45.59l-3.88-8.22h-.26c.36,4.14.93,8.94.93,13.34V66.07h-7.24Z"/><rect class="cls-1" x="385.86" y="33.41" width="7.65" height="32.66"/><rect class="cls-1" x="396.89" y="26.87" width="7.2" height="40.05" transform="translate(30.21 206.53) rotate(-30)"/><rect class="cls-1" x="407.48" y="27.8" width="7.65" height="38.27"/><path class="cls-1" d="M223.1,27.82h7.81L242,48.2l3.82,8.28h.26c-.41-4-1-9.06-1-13.4V27.82h7.24V66.1h-7.76L233.54,45.61l-3.88-8.22h-.25c.36,4.14.93,9,.93,13.34V66.1H223.1Z"/><rect class="cls-1" x="223.1" y="33.44" width="7.65" height="32.66"/><rect class="cls-1" x="234.13" y="26.89" width="7.2" height="40.05" transform="translate(8.39 125.15) rotate(-30)"/><rect class="cls-1" x="244.71" y="27.82" width="7.65" height="38.27"/></g></g></svg>