<svg xmlns="http://www.w3.org/2000/svg" viewBox="0 0 260.16 236.66"><defs><style>.cls-1{fill:#fe7139;}.cls-2{fill:#222;}</style></defs><title>자산 3</title><g id="레이어_2" data-name="레이어 2"><g id="title"><path class="cls-1" d="M139.26,70.64l24.44,43.9-15.62,8.07v11.1l31.74-14.13L134,44.91,88.63,119.08l31.24,14.63.5-11.1-15.61-8.07,24.43-43.9-.5,93.84L55.38,129.17,134.48,0l78.6,128.66-73.82,35.83Z"/><path class="cls-2" d="M0,218.22c0-11.49,6.43-18.16,15.77-18.16s15.78,6.72,15.78,18.16-6.43,18.44-15.78,18.44S0,229.65,0,218.22Zm24.35,0c0-7.58-3.33-12.11-8.58-12.11S7.2,210.64,7.2,218.22s3.33,12.34,8.57,12.34S24.35,225.75,24.35,218.22Z"/><path class="cls-2" d="M36,200.73H47.6c7.82,0,13.83,2.71,13.83,11.05,0,8.06-6.06,11.68-13.63,11.68H43.08V236H36Zm11.3,17.15c4.86,0,7.2-2,7.2-6.1s-2.58-5.48-7.44-5.48h-4v11.58Z"/><path class="cls-2" d="M65.38,200.73H87v5.86H72.43v8.15H84.82v5.91H72.43v9.43H87.54V236H65.38Z"/><path class="cls-2" d="M91.72,200.73h7.2l10.24,18.77,3.53,7.63h.24c-.38-3.67-.91-8.34-.91-12.35V200.73h6.67V236h-7.14l-10.2-18.87-3.58-7.58h-.24c.34,3.81.86,8.25.86,12.3V236H91.72Z"/><path class="cls-2" d="M122.16,231.75l16.45-25.16H123.74v-5.86h23.49v4.19l-16.39,25.16h16.58V236H122.16Z"/><path class="cls-2" d="M151.76,200.73h7.05V236h-7.05Z"/><path class="cls-2" d="M162.93,200.73h11.58c7.82,0,13.82,2.71,13.82,11.05,0,8.06-6.05,11.68-13.63,11.68H170V236h-7Zm11.3,17.15c4.86,0,7.19-2,7.19-6.1s-2.57-5.48-7.43-5.48h-4v11.58Z"/><path class="cls-2" d="M191.75,200.73h7.06V216H199l11.68-15.29h7.76l-10.77,13.86L220.3,236h-7.77l-9.1-15.82-4.62,5.91V236h-7.06Z"/><path class="cls-2" d="M222.54,200.73h7.05V236h-7.05Z"/><path class="cls-2" d="M233.18,200.73h7.2l10.25,18.77,3.52,7.63h.24c-.38-3.67-.9-8.34-.9-12.35V200.73h6.67V236H253l-10.2-18.87-3.57-7.58H239c.33,3.81.86,8.25.86,12.3V236h-6.68Z"/><rect class="cls-2" x="235.72" y="205.89" width="4.14" height="29.11"/><rect class="cls-2" x="253.5" y="202.43" width="4.14" height="29.11"/><rect class="cls-2" x="243.08" y="200.18" width="5.24" height="31.65" transform="translate(-73.56 144.62) rotate(-28.72)"/><rect class="cls-2" x="245.07" y="204.92" width="5.24" height="31.65" transform="translate(-75.6 146.16) rotate(-28.72)"/><rect class="cls-2" x="94.24" y="205.89" width="4.14" height="29.11"/><rect class="cls-2" x="112.03" y="202.43" width="4.14" height="29.11"/><rect class="cls-2" x="101.61" y="200.18" width="5.24" height="31.65" transform="translate(-90.96 76.65) rotate(-28.72)"/><rect class="cls-2" x="103.6" y="204.92" width="5.24" height="31.65" transform="translate(-93 78.18) rotate(-28.72)"/></g></g></svg>