<svg xmlns="http://www.w3.org/2000/svg" viewBox="0 0 167.34 152.23"><defs><style>.cls-1{fill:#fff;}</style></defs><title>자산 11</title><g id="레이어_2" data-name="레이어 2"><g id="title"><path class="cls-1" d="M89.58,45.44,105.3,73.67l-10,5.2V86l20.42-9.09-29.49-48L57,76.59,77.1,86l.33-7.14-10.05-5.2L83.1,45.44l-.32,60.36L35.62,83.09,86.5,0l50.56,82.76-47.48,23Z"/><path class="cls-1" d="M0,140.36c0-7.38,4.14-11.67,10.15-11.67S20.29,133,20.29,140.36s-4.13,11.87-10.14,11.87S0,147.72,0,140.36Zm15.66,0c0-4.87-2.14-7.78-5.51-7.78s-5.52,2.91-5.52,7.78,2.14,7.94,5.52,7.94S15.66,145.21,15.66,140.36Z"/><path class="cls-1" d="M23.17,129.11h7.45c5,0,8.89,1.75,8.89,7.12,0,5.18-3.89,7.51-8.77,7.51h-3v8.06H23.17Zm7.27,11c3.12,0,4.63-1.32,4.63-3.92s-1.66-3.53-4.79-3.53H27.71v7.45Z"/><path class="cls-1" d="M42.05,129.11H56v3.78H46.59v5.24h8v3.8h-8V148h9.72v3.8H42.05Z"/><path class="cls-1" d="M59,129.11h4.63l6.59,12.08,2.27,4.91h.15c-.25-2.36-.58-5.37-.58-7.94v-9h4.29V151.8h-4.6l-6.56-12.14-2.3-4.87h-.15c.21,2.45.55,5.3.55,7.9v9.11H59Z"/><path class="cls-1" d="M78.58,149.07l10.58-16.18H79.59v-3.78H94.7v2.7L84.16,148H94.83v3.8H78.58Z"/><path class="cls-1" d="M97.62,129.11h4.53V151.8H97.62Z"/><path class="cls-1" d="M104.8,129.11h7.45c5,0,8.89,1.75,8.89,7.12,0,5.18-3.89,7.51-8.76,7.51h-3v8.06H104.8Zm7.27,11c3.13,0,4.63-1.32,4.63-3.92s-1.66-3.53-4.78-3.53h-2.58v7.45Z"/><path class="cls-1" d="M123.34,129.11h4.54V139H128l7.51-9.84h5L133.55,138l8.16,13.76h-5l-5.86-10.18-3,3.8v6.38h-4.54Z"/><path class="cls-1" d="M143.15,129.11h4.53V151.8h-4.53Z"/><path class="cls-1" d="M150,129.11h4.63l6.59,12.08,2.27,4.91h.15c-.24-2.36-.58-5.37-.58-7.94v-9h4.29V151.8h-4.59l-6.56-12.14-2.3-4.87h-.16c.22,2.45.55,5.3.55,7.9v9.11H150Z"/><rect class="cls-1" x="151.62" y="132.44" width="2.66" height="18.73"/><rect class="cls-1" x="163.06" y="130.21" width="2.66" height="18.73"/><rect class="cls-1" x="156.36" y="128.76" width="3.37" height="20.36" transform="translate(-47.32 93.03) rotate(-28.72)"/><rect class="cls-1" x="157.64" y="131.81" width="3.37" height="20.36" transform="translate(-48.63 94.01) rotate(-28.72)"/><rect class="cls-1" x="60.62" y="132.44" width="2.66" height="18.73"/><rect class="cls-1" x="72.06" y="130.21" width="2.66" height="18.73"/><rect class="cls-1" x="65.36" y="128.76" width="3.37" height="20.36" transform="translate(-58.51 49.3) rotate(-28.72)"/><rect class="cls-1" x="66.64" y="131.81" width="3.37" height="20.36" transform="translate(-59.82 50.29) rotate(-28.72)"/></g></g></svg>