<svg xmlns="http://www.w3.org/2000/svg" viewBox="0 0 727.47 172.68"><defs><style>.cls-1{fill:#fe7139;}.cls-2{fill:#222;}</style></defs><title>자산 1</title><g id="레이어_2" data-name="레이어 2"><g id="title"><path class="cls-1" d="M88.06,74.16l25.66,46.08-16.4,8.48v11.65l33.32-14.83L82.51,47.14,34.91,125,67.7,140.37l.53-11.65-16.4-8.48L77.49,74.16l-.53,98L0,135.6,83,0l82.51,135.07L88.06,172.68Z"/><path class="cls-2" d="M222.36,87.06c0-22.3,12.49-35.25,30.63-35.25s30.63,13,30.63,35.25-12.5,35.81-30.63,35.81S222.36,109.27,222.36,87.06Zm47.28,0c0-14.71-6.47-23.5-16.65-23.5s-16.66,8.79-16.66,23.5,6.48,24,16.66,24S269.64,101.68,269.64,87.06Z"/><path class="cls-2" d="M292.3,53.1h22.49c15.17,0,26.83,5.28,26.83,21.47,0,15.64-11.75,22.67-26.46,22.67H306v24.34H292.3Zm21.93,33.32c9.44,0,14-4,14-11.85s-5-10.64-14.44-10.64H306V86.42Z"/><path class="cls-2" d="M349.29,53.1h42V64.49H363V80.31H387V91.78H363V110.1h29.33v11.48h-43Z"/><path class="cls-2" d="M400.44,53.1h14l19.9,36.46,6.84,14.81h.47c-.74-7.13-1.76-16.2-1.76-24V53.1h12.95v68.48H438.93l-19.8-36.65-6.94-14.71h-.46c.65,7.41,1.66,16,1.66,23.88v27.48H400.44Z"/><path class="cls-2" d="M459.55,113.34l31.92-48.85H462.6V53.1h45.62v8.15L476.39,110.1h32.2v11.48h-49Z"/><path class="cls-2" d="M517,53.1H530.7v68.48H517Z"/><path class="cls-2" d="M538.7,53.1h22.48c15.18,0,26.84,5.28,26.84,21.47,0,15.64-11.75,22.67-26.47,22.67h-9.16v24.34H538.7Zm21.93,33.32c9.44,0,14-4,14-11.85s-5-10.64-14.43-10.64h-7.78V86.42Z"/><path class="cls-2" d="M594.66,53.1h13.69V82.81h.28L631.3,53.1h15.08L625.47,80l24.61,41.55H635L617.33,90.86l-9,11.47v19.25H594.66Z"/><path class="cls-2" d="M654.43,53.1h13.7v68.48h-13.7Z"/><path class="cls-2" d="M675.1,53.1h14L709,89.56l6.85,14.81h.46c-.74-7.13-1.75-16.2-1.75-24V53.1h13v68.48H713.59l-19.8-36.65-6.94-14.71h-.46c.64,7.41,1.66,16,1.66,23.88v27.48H675.1Z"/><rect class="cls-2" x="680.01" y="63.14" width="8.04" height="56.53"/><rect class="cls-2" x="714.55" y="56.41" width="8.04" height="56.53"/><rect class="cls-2" x="694.32" y="52.04" width="10.17" height="61.45" transform="translate(46.26 346.23) rotate(-28.72)"/><rect class="cls-2" x="698.17" y="61.24" width="10.17" height="61.45" transform="translate(42.31 349.21) rotate(-28.72)"/><rect class="cls-2" x="405.34" y="63.14" width="8.04" height="56.53"/><rect class="cls-2" x="439.87" y="56.41" width="8.04" height="56.53"/><rect class="cls-2" x="419.65" y="52.04" width="10.17" height="61.45" transform="translate(12.47 214.25) rotate(-28.72)"/><rect class="cls-2" x="423.5" y="61.24" width="10.17" height="61.45" transform="translate(8.52 217.24) rotate(-28.72)"/></g></g></svg>