<svg xmlns="http://www.w3.org/2000/svg" viewBox="0 0 260.16 36.6"><defs><style>.cls-1{fill:#222;}</style></defs><title>자산 13</title><g id="레이어_2" data-name="레이어 2"><g id="title"><path class="cls-1" d="M0,18.16C0,6.67,6.43,0,15.77,0S31.55,6.72,31.55,18.16,25.12,36.6,15.77,36.6,0,29.59,0,18.16Zm24.35,0c0-7.58-3.33-12.11-8.58-12.11S7.2,10.58,7.2,18.16,10.53,30.5,15.77,30.5,24.35,25.69,24.35,18.16Z"/><path class="cls-1" d="M36,.67H47.6c7.82,0,13.83,2.71,13.83,11.05,0,8.06-6.06,11.68-13.63,11.68H43.08V35.93H36Zm11.3,17.15c4.86,0,7.2-2.05,7.2-6.1s-2.58-5.48-7.44-5.48h-4V17.82Z"/><path class="cls-1" d="M65.38.67H87V6.53H72.43v8.15H84.82v5.91H72.43V30H87.54v5.91H65.38Z"/><path class="cls-1" d="M91.72.67h7.2l10.24,18.77,3.53,7.63h.24c-.38-3.67-.91-8.34-.91-12.34V.67h6.67V35.93h-7.14l-10.2-18.87L97.77,9.48h-.24c.34,3.82.86,8.25.86,12.3V35.93H91.72Z"/><path class="cls-1" d="M122.16,31.69,138.61,6.53H123.74V.67h23.49V4.86L130.84,30h16.58v5.91H122.16Z"/><path class="cls-1" d="M151.76.67h7.05V35.93h-7.05Z"/><path class="cls-1" d="M162.93.67h11.58c7.82,0,13.82,2.71,13.82,11.05,0,8.06-6.05,11.68-13.63,11.68H170V35.93h-7Zm11.3,17.15c4.86,0,7.19-2.05,7.19-6.1S178.85,6.24,174,6.24h-4V17.82Z"/><path class="cls-1" d="M191.75.67h7.06V16H199L210.63.67h7.76L207.62,14.54,220.3,35.93h-7.77l-9.1-15.82L198.81,26v9.91h-7.06Z"/><path class="cls-1" d="M222.54.67h7.05V35.93h-7.05Z"/><path class="cls-1" d="M233.18.67h7.2l10.25,18.77,3.52,7.63h.24c-.38-3.67-.9-8.34-.9-12.34V.67h6.67V35.93H253l-10.2-18.87-3.57-7.58H239c.33,3.82.86,8.25.86,12.3V35.93h-6.68Z"/><rect class="cls-1" x="235.72" y="5.83" width="4.14" height="29.11"/><rect class="cls-1" x="253.5" y="2.37" width="4.14" height="29.11"/><rect class="cls-1" x="243.08" y="0.12" width="5.24" height="31.65" transform="translate(22.56 120.02) rotate(-28.72)"/><rect class="cls-1" x="245.07" y="4.86" width="5.24" height="31.65" transform="translate(20.53 121.55) rotate(-28.72)"/><rect class="cls-1" x="94.24" y="5.83" width="4.14" height="29.11"/><rect class="cls-1" x="112.03" y="2.37" width="4.14" height="29.11"/><rect class="cls-1" x="101.61" y="0.12" width="5.24" height="31.65" transform="translate(5.16 52.04) rotate(-28.72)"/><rect class="cls-1" x="103.6" y="4.86" width="5.24" height="31.65" transform="translate(3.13 53.58) rotate(-28.72)"/></g></g></svg>